<?xml version="1.0" encoding="UTF-8"?>
<svg viewBox="0 0 1749 336" version="1.1" xmlns="http://www.w3.org/2000/svg" xmlns:xlink="http://www.w3.org/1999/xlink">
    <g stroke-width="1" fill="none" fill-rule="evenodd">
        <path d="M1196.57759,88 C1230.7236,88 1261.93222,101.114497 1284.45224,124.914881 C1306.52547,148.258686 1318.0469,179.64605 1316.92518,213.306593 L1316.92518,213.306593 L1316.25975,233.221199 L1128.36161,233.221199 C1136.85058,265.240002 1163.75293,286.33977 1196.96734,286.33977 C1222.57685,286.33977 1244.61206,276.314466 1257.44533,258.847898 L1257.44533,258.847898 L1269.54663,242.352775 L1308.03695,271.845822 L1296.07824,288.331231 C1274.08105,318.630577 1237.80567,336 1196.57759,336 C1129.52136,336 1077,281.628266 1077,212.199146 C1077,142.556309 1129.52136,88 1196.57759,88 Z M336.891224,96 C405.322396,96 461,149.834327 461,216 C461,282.165673 405.322396,336 336.891224,336 C277.114954,336 227.074234,294.920615 215.372104,240.427361 L215.372104,240.427361 L45,240.427361 L45,191.902102 L215.29422,191.902102 C226.869787,137.248823 276.988392,96 336.891224,96 Z M534.822964,0 L534.822964,104.667369 C551.050462,94.2889591 570.825008,88.8453343 592.590539,88.8453343 C638.914781,88.8453343 693,119.951762 693,207.625805 L693,207.625805 L693,328 L643.177036,328 L643.177036,207.625805 C643.177036,179.994848 636.421216,160.207704 623.093211,148.802014 C612.597045,139.815712 600.283862,137.933966 591.798011,137.933966 C565.808884,137.933966 534.822964,150.021309 534.822964,207.625805 L534.822964,207.625805 L534.822964,328 L485,328 L485,0 L534.822964,0 Z M1053,0 L1053,326.0341 L1003.25897,326.0341 L1003.25897,304.48554 C982.847193,319.716497 958.044234,328 932.401641,328 C865.452952,328 813,275.445563 813,208.356823 C813,141.048589 865.452952,88.312831 932.401641,88.312831 C958.333762,88.312831 983.107769,96.4436427 1003.25897,111.369217 L1003.25897,111.369217 L1003.25897,0 L1053,0 Z M1460.00595,88 C1485.95737,88 1510.8858,96.1509795 1531.25897,111.124701 L1531.25897,111.124701 L1531.25897,89.978022 L1581,89.978022 L1581,326.031534 L1531.25897,326.031534 L1531.25897,304.884854 C1510.8858,319.858576 1485.95737,328 1460.00595,328 C1393.26958,328 1341,275.376971 1341,208.200669 C1341,140.804587 1393.26958,88 1460.00595,88 Z M1749,88 L1749,138.054197 L1727.77131,137.659159 C1710.66278,137.427918 1694.98651,142.987354 1684.81361,152.776587 C1676.14163,161.130194 1671.56039,172.229796 1671.56039,184.899916 L1671.56039,184.899916 L1671.56039,328 L1621,328 L1621,89.9848248 L1671.56039,89.9848248 L1671.56039,101.932314 C1688.05089,92.7886306 1707.42551,88 1728.17351,88 L1728.17351,88 L1749,88 Z M336.891224,145.099467 C296.449754,145.099467 263.56307,176.906809 263.56307,216 C263.56307,255.093191 296.449754,286.900533 336.891224,286.900533 C377.322958,286.900533 410.209642,255.093191 410.209642,216 C410.209642,176.906809 377.322958,145.099467 336.891224,145.099467 Z M933.193019,137.107245 C893.691652,137.107245 862.741033,168.399418 862.741033,208.356823 C862.741033,248.085191 893.691652,279.205586 933.193019,279.205586 C972.491716,279.205586 1003.25897,248.085191 1003.25897,208.356823 C1003.25897,168.399418 972.491716,137.107245 933.193019,137.107245 Z M1460.79733,136.858098 C1421.51793,136.858098 1390.74103,168.191113 1390.74103,208.200669 C1390.74103,247.980889 1421.51793,279.141902 1460.79733,279.141902 C1500.30835,279.141902 1531.25897,247.980889 1531.25897,208.200669 C1531.25897,168.191113 1500.30835,136.858098 1460.79733,136.858098 Z M1196.57759,137.271652 C1166.64279,137.271652 1140.81464,155.94281 1130.50049,184.357554 L1130.50049,184.357554 L1264.32777,184.357554 C1254.46041,155.94281 1227.98584,137.271652 1196.57759,137.271652 Z" id="logo-mail" fill="#ee3342" fill-rule="nonzero"></path>
    </g>
</svg>
