<svg fill="none" height="608" viewBox="0 0 1000 608" width="1000" xmlns="http://www.w3.org/2000/svg"><g fill="#ff3900"><path d="m116.674 71.643c-64.9485 0-116.674 43.064-116.674 106.877s51.7255 106.877 116.674 106.877c64.56 0 116.285-43.064 116.285-106.877s-51.725-106.877-116.285-106.877zm0 173.431c-40.058 0-71.9489-24.664-71.9489-66.554 0-41.889 31.8909-66.553 71.9489-66.553 39.669 0 71.56 24.664 71.56 66.553 0 41.89-31.891 66.554-71.56 66.554z"/><path d="m265.771 281.091h46.669v-103.354c0-37.975 21.39-63.03 61.06-63.03 37.724 0 56.392 25.838 56.392 62.247v104.137h46.67v-111.967c0-57.549-31.891-97.481-88.673-97.481-35.391 0-61.059 14.0936-75.449 30.928v-102.571h-46.669z"/><path d="m258.982 577.852v25.839h46.67v-281.091h-46.67v101.788c-14.778-16.051-42.002-30.145-79.338-30.145-70.393 0-112.007 48.545-112.007 106.877s41.614 106.877 112.007 106.877c37.336 0 64.56-14.093 79.338-30.145zm2.334-78.298v3.132c0 37.583-32.669 66.162-75.06 66.162-40.058 0-74.283-24.272-74.283-67.728 0-43.455 34.225-67.728 74.283-67.728 42.391 0 75.06 28.579 75.06 66.162z"/><path d="m456.274 568.065c-38.113 0-67.282-20.357-73.504-53.243h183.178v-16.442c0-59.116-42.391-104.137-109.674-104.137-69.615 0-117.84 46.587-117.84 106.877 0 63.422 49.781 106.877 117.84 106.877 54.837 0 93.34-30.144 105.785-62.247l-37.336-19.966c-9.723 25.056-34.613 42.281-68.449 42.281zm-2.333-134.673c38.502 0 63.782 24.664 66.893 46.196h-136.12c8.945-30.145 36.947-46.196 69.227-46.196z"/><path d="m670.076 607.997c38.114 0 69.616-13.31 87.895-32.102 6.611 20.358 26.446 36.8 70.004 27.796v-36.409c-24.89 5.481-30.335.392-30.335-11.353v-86.52c0-48.936-35.78-75.166-98.784-75.166-49.392 0-94.117 22.706-106.952 57.158l38.503 17.225c7.778-19.966 35.391-34.451 66.893-34.451 38.114 0 55.226 14.877 55.226 34.451v1.566l-88.672 10.571c-49.004 5.872-78.561 27.404-78.561 63.421 0 42.281 37.725 63.813 84.783 63.813zm82.45-83.779c0 30.145-43.558 45.805-78.561 45.805-26.835 0-43.169-9.005-43.169-26.23 0-17.226 13.612-23.881 40.836-27.013l80.894-9.787z"/><path d="m1000 400.115c-5.834-1.566-13.612-3.132-22.946-3.132-33.057 0-60.67 10.571-78.171 38.367v-37.192h-46.67v205.533h46.67v-91.218c0-48.936 30.335-68.902 77.004-68.902 10.501 0 14.779 1.174 24.113 3.523z"/></g></svg>